<svg width="16" height="16" viewBox="0 0 16 16" fill="none" xmlns="http://www.w3.org/2000/svg">
<g clip-path="url(#clip0_2_465)">
<path d="M7.89499 7.73333C8.96166 7.73333 9.86833 7.35111 10.615 6.58667C11.3617 5.82222 11.735 4.90667 11.735 3.84C11.735 2.77333 11.3617 1.86667 10.615 1.12C9.86833 0.373333 8.96166 0 7.89499 0C6.82832 0 5.92166 0.373333 5.17499 1.12C4.42832 1.86667 4.05499 2.77333 4.05499 3.84C4.05499 4.90667 4.42832 5.82222 5.17499 6.58667C5.92166 7.35111 6.82832 7.73333 7.89499 7.73333ZM5.81499 1.81333C6.38388 1.24444 7.06832 0.96 7.86832 0.96C8.66832 0.96 9.36166 1.24444 9.94833 1.81333C10.535 2.38222 10.8283 3.06667 10.8283 3.86667C10.8283 4.66667 10.5439 5.35111 9.97499 5.92C9.4061 6.48889 8.71277 6.77333 7.89499 6.77333C7.07721 6.77333 6.38388 6.48889 5.81499 5.92C5.2461 5.35111 4.96166 4.66667 4.96166 3.86667C4.96166 3.06667 5.2461 2.38222 5.81499 1.81333ZM14.615 12.32C14.615 12 14.5794 11.6533 14.5083 11.28C14.4372 10.9067 14.3483 10.5689 14.2417 10.2667C14.135 9.96444 13.9928 9.65333 13.815 9.33333C13.6372 9.01333 13.4328 8.73778 13.2017 8.50667C12.9705 8.27556 12.6772 8.08889 12.3217 7.94667C11.9661 7.80444 11.575 7.73333 11.1483 7.73333C11.0061 7.73333 10.7928 7.82222 10.5083 8L9.86833 8.42667C9.65499 8.56889 9.37055 8.69333 9.01499 8.8C8.65944 8.90667 8.31277 8.96 7.97499 8.96C7.63721 8.96 7.29055 8.90667 6.93499 8.8C6.57944 8.69333 6.31277 8.56889 6.13499 8.42667L5.44166 8C5.19277 7.82222 4.99721 7.73333 4.85499 7.73333C4.42832 7.73333 4.03721 7.80444 3.68166 7.94667C3.3261 8.08889 3.02388 8.27556 2.77499 8.50667C2.5261 8.73778 2.31277 9.01333 2.13499 9.33333C1.95721 9.65333 1.81499 9.97333 1.70832 10.2933C1.60166 10.6133 1.52166 10.9511 1.46832 11.3067C1.41499 11.6622 1.37944 11.9911 1.36166 12.2933C1.34388 12.5956 1.33499 12.9067 1.33499 13.2267C1.33499 14.08 1.59277 14.7556 2.10832 15.2533C2.62388 15.7511 3.30832 16 4.16166 16H11.8417C12.6594 16 13.335 15.7511 13.8683 15.2533C14.4017 14.7556 14.6683 14.08 14.6683 13.2267C14.6683 12.9067 14.6505 12.6044 14.615 12.32ZM13.2283 14.56C12.8728 14.88 12.4105 15.04 11.8417 15.04H4.16166C3.55721 15.04 3.0861 14.88 2.74832 14.56C2.41055 14.24 2.24166 13.7956 2.24166 13.2267L2.29499 12.3733C2.29499 12.0889 2.33055 11.7867 2.40166 11.4667C2.47277 11.1467 2.54388 10.8533 2.61499 10.5867C2.6861 10.32 2.79277 10.0622 2.93499 9.81333C3.07721 9.56444 3.23721 9.36 3.41499 9.2C3.59277 9.04 3.79721 8.91556 4.02832 8.82667C4.25944 8.73778 4.49944 8.69333 4.74832 8.69333L5.60166 9.22667C5.8861 9.40444 6.24166 9.55556 6.66832 9.68C7.09499 9.80444 7.53055 9.86667 7.97499 9.86667C8.41944 9.86667 8.86388 9.80444 9.30832 9.68C9.75277 9.55556 10.0994 9.40444 10.3483 9.22667L11.2017 8.69333C11.4861 8.69333 11.7439 8.73778 11.975 8.82667C12.2061 8.91556 12.4017 9.04 12.5617 9.2C12.7217 9.36 12.8728 9.56444 13.015 9.81333C13.1572 10.0622 13.2728 10.32 13.3617 10.5867C13.4505 10.8533 13.5217 11.1467 13.575 11.4667C13.6283 11.7867 13.6728 12.0889 13.7083 12.3733V13.2267C13.7083 13.7956 13.5483 14.24 13.2283 14.56Z" fill="white"/>
</g>
<defs>
<clipPath id="clip0_2_465">
<rect width="15.95" height="16" fill="white" transform="matrix(1 0 0 -1 0 16)"/>
</clipPath>
</defs>
</svg>
